<?xml version="1.0" encoding="UTF-8"?>
<svg width="146px" height="33px" viewBox="0 0 146 33" version="1.1" xmlns="http://www.w3.org/2000/svg" xmlns:xlink="http://www.w3.org/1999/xlink">
    <!-- Generator: Sketch 47 (45396) - http://www.bohemiancoding.com/sketch -->
    <title>logo</title>
    <desc>Created with Sketch.</desc>
    <defs></defs>
    <g id="Page-1" stroke="none" stroke-width="1" fill="none" fill-rule="evenodd">
        <g id="Home" transform="translate(-45.000000, -53.000000)">
            <g id="nav" transform="translate(45.000000, 53.000000)">
                <g id="logo">
                    <path d="M18.8976222,26 L17.2980128,20.4277344 L9.00113779,20.4277344 L7.38395029,26 L0.809731543,26 L9.33512217,0.634765625 L17.2277003,0.634765625 L25.7530909,26 L18.8976222,26 Z M13.0792628,6.01367188 L10.2491847,15.7871094 L16.0323878,15.7871094 L13.2198878,6.01367188 L13.0792628,6.01367188 Z M28.4090158,0.634765625 L38.7097971,0.634765625 C46.3738596,0.634765625 50.8738596,5.08203125 50.8738596,13.1679688 C50.8738596,21.2714844 46.3562815,26 38.7097971,26 L28.4090158,26 L28.4090158,0.634765625 Z M34.8601877,5.83789062 L34.8601877,20.796875 L37.8660471,20.796875 C42.067219,20.796875 44.317219,18.2480469 44.317219,13.1855469 C44.317219,8.421875 41.9441721,5.83789062 37.8660471,5.83789062 L34.8601877,5.83789062 Z" id="AD" fill="#EC5980"></path>
                    <path d="M53.8110345,26 L60.0512689,26 L60.0512689,15.9277344 C60.0512689,13.2558594 61.475097,11.7792969 64.0942376,11.7792969 C64.8325189,11.7792969 65.553222,11.9199219 66.0805658,12.1308594 L66.0805658,6.82226562 C65.6586908,6.6640625 65.131347,6.57617188 64.4985345,6.57617188 C62.2485345,6.57617188 60.7016595,7.89453125 59.9985345,10.4785156 L59.8754876,10.4785156 L59.8754876,6.85742188 L53.8110345,6.85742188 L53.8110345,26 Z M76.9278969,26.4570313 C70.8986,26.4570313 67.1368813,22.8007813 67.1368813,16.4199219 C67.1368813,10.1621094 70.9864907,6.40039062 76.9278969,6.40039062 C82.9044594,6.40039062 86.7189125,10.1445313 86.7189125,16.4199219 C86.7189125,22.8183594 82.9571938,26.4570313 76.9278969,26.4570313 Z M76.9278969,21.8867188 C79.05485,21.8867188 80.4083657,19.9355469 80.4083657,16.4375 C80.4083657,12.9921875 79.05485,10.9707031 76.9278969,10.9707031 C74.8185219,10.9707031 73.4650063,12.9921875 73.4650063,16.4375 C73.4650063,19.9355469 74.7833657,21.8867188 76.9278969,21.8867188 Z M101.486166,6.57617188 C106.32015,6.57617188 109.13265,10.1796875 109.13265,16.4375 C109.13265,22.6777344 106.337728,26.28125 101.574056,26.28125 C98.7615562,26.28125 96.6521812,24.9453125 95.7205406,22.7304688 L95.5974937,22.7304688 L95.5974937,32.1875 L89.3572593,32.1875 L89.3572593,6.85742188 L95.5623375,6.85742188 L95.5623375,10.2675781 L95.6853843,10.2675781 C96.6521812,7.96484375 98.7264,6.57617188 101.486166,6.57617188 Z M99.1658531,21.4121094 C101.380697,21.4121094 102.769369,19.4785156 102.769369,16.4375 C102.769369,13.3964844 101.363119,11.4453125 99.1658531,11.4453125 C96.9861656,11.4453125 95.5799156,13.4140625 95.5623375,16.4375 C95.5799156,19.4785156 96.9685875,21.4121094 99.1658531,21.4121094 Z M120.841309,10.8300781 C118.925294,10.8300781 117.501465,12.2539062 117.343262,14.2402344 L124.3042,14.2402344 C124.198731,12.2011719 122.810059,10.8300781 120.841309,10.8300781 Z M124.444825,19.953125 L130.069825,19.953125 C129.472169,23.9082031 125.956544,26.4570313 120.946778,26.4570313 C114.847169,26.4570313 111.208497,22.7128906 111.208497,16.5253906 C111.208497,10.3378906 114.882325,6.40039062 120.73584,6.40039062 C126.501465,6.40039062 130.175294,10.1796875 130.175294,16.0332031 L130.175294,17.7910156 L117.255372,17.7910156 L117.255372,18.1777344 C117.255372,20.4628906 118.784669,22.0449219 121.034669,22.0449219 C122.70459,22.0449219 124.005372,21.2539062 124.444825,19.953125 Z M132.81364,26 L139.053875,26 L139.053875,15.9277344 C139.053875,13.2558594 140.477703,11.7792969 143.096844,11.7792969 C143.835125,11.7792969 144.555828,11.9199219 145.083172,12.1308594 L145.083172,6.82226562 C144.661297,6.6640625 144.133953,6.57617188 143.50114,6.57617188 C141.25114,6.57617188 139.704265,7.89453125 139.00114,10.4785156 L138.878094,10.4785156 L138.878094,6.85742188 L132.81364,6.85742188 L132.81364,26 Z" id="roper" fill="#4A4A4A"></path>
                </g>
            </g>
        </g>
    </g>
</svg>