<?xml version="1.0" encoding="UTF-8"?>
<svg width="327px" height="110px" viewBox="0 0 327 110" version="1.1" xmlns="http://www.w3.org/2000/svg" xmlns:xlink="http://www.w3.org/1999/xlink">
    <!-- Generator: Sketch 47 (45396) - http://www.bohemiancoding.com/sketch -->
    <title>noApplication</title>
    <desc>Created with Sketch.</desc>
    <defs>
        <linearGradient x1="1.77951811%" y1="16.038482%" x2="92.4317811%" y2="36.0133779%" id="linearGradient-1">
            <stop stop-color="#0BA6AC" offset="0%"></stop>
            <stop stop-color="#039BA1" offset="100%"></stop>
        </linearGradient>
        <linearGradient x1="50%" y1="1.51267538%" x2="50%" y2="96.7633929%" id="linearGradient-2">
            <stop stop-color="#039BA1" offset="0%"></stop>
            <stop stop-color="#02696D" offset="100%"></stop>
        </linearGradient>
    </defs>
    <g id="Page-1" stroke="none" stroke-width="1" fill="none" fill-rule="evenodd">
        <g id="Dashbaord(emptyApplications)" transform="translate(-690.000000, -411.000000)">
            <g id="mainPanel" transform="translate(260.000000, 0.000000)">
                <g id="emptyApplications" transform="translate(422.000000, 405.000000)">
                    <g id="noApplication">
                        <path d="M61.0215311,57.6666667 C59.9050703,57.6666667 59,56.696617 59,55.5 C59,54.303383 59.9050703,53.3333333 61.0215311,53.3333333 C62.1379919,53.3333333 63.0430622,54.303383 63.0430622,55.5 C63.0430622,56.696617 62.1379919,57.6666667 61.0215311,57.6666667 Z M68.7966507,59.3333333 C67.6801899,59.3333333 66.7751196,58.3632836 66.7751196,57.1666667 C66.7751196,55.9700497 67.6801899,55 68.7966507,55 C69.9131115,55 70.8181818,55.9700497 70.8181818,57.1666667 C70.8181818,58.3632836 69.9131115,59.3333333 68.7966507,59.3333333 Z M76.5717703,58.6666667 C75.4553095,58.6666667 74.5502392,57.696617 74.5502392,56.5 C74.5502392,55.303383 75.4553095,54.3333333 76.5717703,54.3333333 C77.6882311,54.3333333 78.5933014,55.303383 78.5933014,56.5 C78.5933014,57.696617 77.6882311,58.6666667 76.5717703,58.6666667 Z M84.6578947,56.3333333 C83.5414339,56.3333333 82.6363636,55.3632836 82.6363636,54.1666667 C82.6363636,52.9700497 83.5414339,52 84.6578947,52 C85.7743555,52 86.6794258,52.9700497 86.6794258,54.1666667 C86.6794258,55.3632836 85.7743555,56.3333333 84.6578947,56.3333333 Z M92.7440191,57 C91.6275583,57 90.722488,56.0299503 90.722488,54.8333333 C90.722488,53.6367164 91.6275583,52.6666667 92.7440191,52.6666667 C93.8604799,52.6666667 94.7655502,53.6367164 94.7655502,54.8333333 C94.7655502,56.0299503 93.8604799,57 92.7440191,57 Z M98.9641148,61.3333333 C97.847654,61.3333333 96.9425837,60.3632836 96.9425837,59.1666667 C96.9425837,57.9700497 97.847654,57 98.9641148,57 C100.080576,57 100.985646,57.9700497 100.985646,59.1666667 C100.985646,60.3632836 100.080576,61.3333333 98.9641148,61.3333333 Z M102.385167,66.6666667 C101.268707,66.6666667 100.363636,65.696617 100.363636,64.5 C100.363636,63.303383 101.268707,62.3333333 102.385167,62.3333333 C103.501628,62.3333333 104.406699,63.303383 104.406699,64.5 C104.406699,65.696617 103.501628,66.6666667 102.385167,66.6666667 Z M103.007177,73.6666667 C101.890716,73.6666667 100.985646,72.696617 100.985646,71.5 C100.985646,70.303383 101.890716,69.3333333 103.007177,69.3333333 C104.123638,69.3333333 105.028708,70.303383 105.028708,71.5 C105.028708,72.696617 104.123638,73.6666667 103.007177,73.6666667 Z M102.696172,81 C101.579711,81 100.674641,80.0299503 100.674641,78.8333333 C100.674641,77.6367164 101.579711,76.6666667 102.696172,76.6666667 C103.812633,76.6666667 104.717703,77.6367164 104.717703,78.8333333 C104.717703,80.0299503 103.812633,81 102.696172,81 Z M103.940191,88 C102.823731,88 101.91866,87.0299503 101.91866,85.8333333 C101.91866,84.6367164 102.823731,83.6666667 103.940191,83.6666667 C105.056652,83.6666667 105.961722,84.6367164 105.961722,85.8333333 C105.961722,87.0299503 105.056652,88 103.940191,88 Z M106.739234,94.6666667 C105.622774,94.6666667 104.717703,93.696617 104.717703,92.5 C104.717703,91.303383 105.622774,90.3333333 106.739234,90.3333333 C107.855695,90.3333333 108.760766,91.303383 108.760766,92.5 C108.760766,93.696617 107.855695,94.6666667 106.739234,94.6666667 Z M112.337321,100 C111.22086,100 110.315789,99.0299503 110.315789,97.8333333 C110.315789,96.6367164 111.22086,95.6666667 112.337321,95.6666667 C113.453781,95.6666667 114.358852,96.6367164 114.358852,97.8333333 C114.358852,99.0299503 113.453781,100 112.337321,100 Z M119.490431,103.333333 C118.37397,103.333333 117.4689,102.363284 117.4689,101.166667 C117.4689,99.9700497 118.37397,99 119.490431,99 C120.606891,99 121.511962,99.9700497 121.511962,101.166667 C121.511962,102.363284 120.606891,103.333333 119.490431,103.333333 Z M126.643541,104 C125.52708,104 124.62201,103.02995 124.62201,101.833333 C124.62201,100.636716 125.52708,99.6666667 126.643541,99.6666667 C127.760001,99.6666667 128.665072,100.636716 128.665072,101.833333 C128.665072,103.02995 127.760001,104 126.643541,104 Z M133.796651,102.666667 C132.68019,102.666667 131.77512,101.696617 131.77512,100.5 C131.77512,99.303383 132.68019,98.3333333 133.796651,98.3333333 C134.913112,98.3333333 135.818182,99.303383 135.818182,100.5 C135.818182,101.696617 134.913112,102.666667 133.796651,102.666667 Z M140.016746,98.6666667 C138.900286,98.6666667 137.995215,97.696617 137.995215,96.5 C137.995215,95.303383 138.900286,94.3333333 140.016746,94.3333333 C141.133207,94.3333333 142.038278,95.303383 142.038278,96.5 C142.038278,97.696617 141.133207,98.6666667 140.016746,98.6666667 Z M144.681818,93.6666667 C143.565357,93.6666667 142.660287,92.696617 142.660287,91.5 C142.660287,90.303383 143.565357,89.3333333 144.681818,89.3333333 C145.798279,89.3333333 146.703349,90.303383 146.703349,91.5 C146.703349,92.696617 145.798279,93.6666667 144.681818,93.6666667 Z M149.657895,88 C148.541434,88 147.636364,87.0299503 147.636364,85.8333333 C147.636364,84.6367164 148.541434,83.6666667 149.657895,83.6666667 C150.774356,83.6666667 151.679426,84.6367164 151.679426,85.8333333 C151.679426,87.0299503 150.774356,88 149.657895,88 Z M155.566986,83.6666667 C154.450525,83.6666667 153.545455,82.696617 153.545455,81.5 C153.545455,80.303383 154.450525,79.3333333 155.566986,79.3333333 C156.683446,79.3333333 157.588517,80.303383 157.588517,81.5 C157.588517,82.696617 156.683446,83.6666667 155.566986,83.6666667 Z M161.476077,81 C160.359616,81 159.454545,80.0299503 159.454545,78.8333333 C159.454545,77.6367164 160.359616,76.6666667 161.476077,76.6666667 C162.592537,76.6666667 163.497608,77.6367164 163.497608,78.8333333 C163.497608,80.0299503 162.592537,81 161.476077,81 Z M168.007177,79.6666667 C166.890716,79.6666667 165.985646,78.696617 165.985646,77.5 C165.985646,76.303383 166.890716,75.3333333 168.007177,75.3333333 C169.123638,75.3333333 170.028708,76.303383 170.028708,77.5 C170.028708,78.696617 169.123638,79.6666667 168.007177,79.6666667 Z M174.538278,79.6666667 C173.421817,79.6666667 172.516746,78.696617 172.516746,77.5 C172.516746,76.303383 173.421817,75.3333333 174.538278,75.3333333 C175.654738,75.3333333 176.559809,76.303383 176.559809,77.5 C176.559809,78.696617 175.654738,79.6666667 174.538278,79.6666667 Z M181.069378,81.6666667 C179.952917,81.6666667 179.047847,80.696617 179.047847,79.5 C179.047847,78.303383 179.952917,77.3333333 181.069378,77.3333333 C182.185839,77.3333333 183.090909,78.303383 183.090909,79.5 C183.090909,80.696617 182.185839,81.6666667 181.069378,81.6666667 Z M186.978469,85.3333333 C185.862008,85.3333333 184.956938,84.3632836 184.956938,83.1666667 C184.956938,81.9700497 185.862008,81 186.978469,81 C188.09493,81 189,81.9700497 189,83.1666667 C189,84.3632836 188.09493,85.3333333 186.978469,85.3333333 Z" id="Path" fill="#685F5F" transform="translate(124.000000, 78.000000) scale(-1, 1) rotate(-15.000000) translate(-124.000000, -78.000000) "></path>
                        <g id="paper-planes" transform="translate(244.500000, 52.500000) scale(-1, 1) translate(-244.500000, -52.500000) translate(153.000000, 0.000000)">
                            <g id="larger" transform="translate(62.370610, 7.188751)">
                                <g id="Triangle-1-+-Triangle-2" transform="translate(-0.000000, 0.000000)">
                                    <polygon id="Triangle-1" fill="#FFFFFF" transform="translate(49.734668, 45.067137) rotate(-54.000000) translate(-49.734668, -45.067137) " points="28.6316462 2.32395082 73.9028146 86.8286073 58.3489793 83.5152228 39.15011 87.8103242 38.4053659 79.8298073 25.5665214 77.2984562"></polygon>
                                    <polygon id="Triangle-2" fill="#888888" transform="translate(78.130444, 69.030727) rotate(-54.000000) translate(-78.130444, -69.030727) " points="88.1037768 68.7400846 68.9106158 73.0110917 68.1571108 65.0503626"></polygon>
                                    <polygon id="Triangle-2" fill="#DADADA" transform="translate(46.099997, 50.499394) rotate(-54.000000) translate(-46.099997, -50.499394) " points="31.2579744 7.78067085 60.9420203 88.9263888 41.7462718 93.2181174 45.7654825 86.1195092"></polygon>
                                </g>
                            </g>
                            <g id="large" transform="translate(0.000000, 29.860965)">
                                <path d="M50.6414973,33.921073 C50.2153373,33.921073 49.8698663,33.5524569 49.8698663,33.0977459 C49.8698663,32.643035 50.2153373,32.2744189 50.6414973,32.2744189 C51.0676573,32.2744189 51.4131283,32.643035 51.4131283,33.0977459 C51.4131283,33.5524569 51.0676573,33.921073 50.6414973,33.921073 Z M51.2588021,36.8850502 C50.8326421,36.8850502 50.4871711,36.5164341 50.4871711,36.0617232 C50.4871711,35.6070122 50.8326421,35.2383962 51.2588021,35.2383962 C51.6849621,35.2383962 52.030433,35.6070122 52.030433,36.0617232 C52.030433,36.5164341 51.6849621,36.8850502 51.2588021,36.8850502 Z M50.9501497,39.8490275 C50.5239897,39.8490275 50.1785187,39.4804114 50.1785187,39.0257004 C50.1785187,38.5709895 50.5239897,38.2023734 50.9501497,38.2023734 C51.3763097,38.2023734 51.7217807,38.5709895 51.7217807,39.0257004 C51.7217807,39.4804114 51.3763097,39.8490275 50.9501497,39.8490275 Z M49.7155401,42.4836739 C49.2893801,42.4836739 48.9439092,42.1150578 48.9439092,41.6603469 C48.9439092,41.2056359 49.2893801,40.8370199 49.7155401,40.8370199 C50.1417002,40.8370199 50.4871711,41.2056359 50.4871711,41.6603469 C50.4871711,42.1150578 50.1417002,42.4836739 49.7155401,42.4836739 Z M48.1722782,45.1183203 C47.7461182,45.1183203 47.4006472,44.7497043 47.4006472,44.2949933 C47.4006472,43.8402824 47.7461182,43.4716663 48.1722782,43.4716663 C48.5984382,43.4716663 48.9439092,43.8402824 48.9439092,44.2949933 C48.9439092,44.7497043 48.5984382,45.1183203 48.1722782,45.1183203 Z M47.5549734,47.7529668 C47.1288134,47.7529668 46.7833425,47.3843507 46.7833425,46.9296398 C46.7833425,46.4749288 47.1288134,46.1063128 47.5549734,46.1063128 C47.9811335,46.1063128 48.3266044,46.4749288 48.3266044,46.9296398 C48.3266044,47.3843507 47.9811335,47.7529668 47.5549734,47.7529668 Z M47.5549734,50.3876132 C47.1288134,50.3876132 46.7833425,50.0189972 46.7833425,49.5642862 C46.7833425,49.1095753 47.1288134,48.7409592 47.5549734,48.7409592 C47.9811335,48.7409592 48.3266044,49.1095753 48.3266044,49.5642862 C48.3266044,50.0189972 47.9811335,50.3876132 47.5549734,50.3876132 Z M48.1722782,53.0222597 C47.7461182,53.0222597 47.4006472,52.6536436 47.4006472,52.1989327 C47.4006472,51.7442217 47.7461182,51.3756056 48.1722782,51.3756056 C48.5984382,51.3756056 48.9439092,51.7442217 48.9439092,52.1989327 C48.9439092,52.6536436 48.5984382,53.0222597 48.1722782,53.0222597 Z M49.7155401,55.6569061 C49.2893801,55.6569061 48.9439092,55.2882901 48.9439092,54.8335791 C48.9439092,54.3788681 49.2893801,54.0102521 49.7155401,54.0102521 C50.1417002,54.0102521 50.4871711,54.3788681 50.4871711,54.8335791 C50.4871711,55.2882901 50.1417002,55.6569061 49.7155401,55.6569061 Z M51.5674545,57.3035601 C51.1412944,57.3035601 50.7958235,56.9349441 50.7958235,56.4802331 C50.7958235,56.0255222 51.1412944,55.6569061 51.5674545,55.6569061 C51.9936145,55.6569061 52.3390854,56.0255222 52.3390854,56.4802331 C52.3390854,56.9349441 51.9936145,57.3035601 51.5674545,57.3035601 Z M54.0366736,58.2915526 C53.6105135,58.2915526 53.2650426,57.9229365 53.2650426,57.4682255 C53.2650426,57.0135146 53.6105135,56.6448985 54.0366736,56.6448985 C54.4628336,56.6448985 54.8083045,57.0135146 54.8083045,57.4682255 C54.8083045,57.9229365 54.4628336,58.2915526 54.0366736,58.2915526 Z M56.814545,58.6208834 C56.388385,58.6208834 56.0429141,58.2522673 56.0429141,57.7975564 C56.0429141,57.3428454 56.388385,56.9742293 56.814545,56.9742293 C57.240705,56.9742293 57.586176,57.3428454 57.586176,57.7975564 C57.586176,58.2522673 57.240705,58.6208834 56.814545,58.6208834 Z M59.2837641,58.2915526 C58.8576041,58.2915526 58.5121332,57.9229365 58.5121332,57.4682255 C58.5121332,57.0135146 58.8576041,56.6448985 59.2837641,56.6448985 C59.7099241,56.6448985 60.0553951,57.0135146 60.0553951,57.4682255 C60.0553951,57.9229365 59.7099241,58.2915526 59.2837641,58.2915526 Z M61.4443308,57.3035601 C61.0181708,57.3035601 60.6726999,56.9349441 60.6726999,56.4802331 C60.6726999,56.0255222 61.0181708,55.6569061 61.4443308,55.6569061 C61.8704908,55.6569061 62.2159618,56.0255222 62.2159618,56.4802331 C62.2159618,56.9349441 61.8704908,57.3035601 61.4443308,57.3035601 Z M63.6048975,55.6569061 C63.1787375,55.6569061 62.8332666,55.2882901 62.8332666,54.8335791 C62.8332666,54.3788681 63.1787375,54.0102521 63.6048975,54.0102521 C64.0310576,54.0102521 64.3765285,54.3788681 64.3765285,54.8335791 C64.3765285,55.2882901 64.0310576,55.6569061 63.6048975,55.6569061 Z M65.1481595,53.3515905 C64.7219995,53.3515905 64.3765285,52.9829744 64.3765285,52.5282635 C64.3765285,52.0735525 64.7219995,51.7049365 65.1481595,51.7049365 C65.5743195,51.7049365 65.9197904,52.0735525 65.9197904,52.5282635 C65.9197904,52.9829744 65.5743195,53.3515905 65.1481595,53.3515905 Z M44.1597972,42.1543431 C43.7336372,42.1543431 43.3881662,41.785727 43.3881662,41.3310161 C43.3881662,40.8763051 43.7336372,40.5076891 44.1597972,40.5076891 C44.5859572,40.5076891 44.9314281,40.8763051 44.9314281,41.3310161 C44.9314281,41.785727 44.5859572,42.1543431 44.1597972,42.1543431 Z M25.3320016,29.3104417 C24.9058416,29.3104417 24.5603706,28.9418256 24.5603706,28.4871147 C24.5603706,28.0324037 24.9058416,27.6637877 25.3320016,27.6637877 C25.7581616,27.6637877 26.1036326,28.0324037 26.1036326,28.4871147 C26.1036326,28.9418256 25.7581616,29.3104417 25.3320016,29.3104417 Z M25.9493064,31.9450881 C25.5231464,31.9450881 25.1776754,31.5764721 25.1776754,31.1217611 C25.1776754,30.6670502 25.5231464,30.2984341 25.9493064,30.2984341 C26.3754664,30.2984341 26.7209373,30.6670502 26.7209373,31.1217611 C26.7209373,31.5764721 26.3754664,31.9450881 25.9493064,31.9450881 Z M27.8012207,33.5917422 C27.3750607,33.5917422 27.0295897,33.2231261 27.0295897,32.7684151 C27.0295897,32.3137042 27.3750607,31.9450881 27.8012207,31.9450881 C28.2273807,31.9450881 28.5728517,32.3137042 28.5728517,32.7684151 C28.5728517,33.2231261 28.2273807,33.5917422 27.8012207,33.5917422 Z M30.2704398,34.5797346 C29.8442798,34.5797346 29.4988088,34.2111185 29.4988088,33.7564076 C29.4988088,33.3016966 29.8442798,32.9330805 30.2704398,32.9330805 C30.6965998,32.9330805 31.0420708,33.3016966 31.0420708,33.7564076 C31.0420708,34.2111185 30.6965998,34.5797346 30.2704398,34.5797346 Z M33.0483113,34.5797346 C32.6221513,34.5797346 32.2766803,34.2111185 32.2766803,33.7564076 C32.2766803,33.3016966 32.6221513,32.9330805 33.0483113,32.9330805 C33.4744713,32.9330805 33.8199422,33.3016966 33.8199422,33.7564076 C33.8199422,34.2111185 33.4744713,34.5797346 33.0483113,34.5797346 Z M35.5175304,34.5797346 C35.0913703,34.5797346 34.7458994,34.2111185 34.7458994,33.7564076 C34.7458994,33.3016966 35.0913703,32.9330805 35.5175304,32.9330805 C35.9436904,32.9330805 36.2891613,33.3016966 36.2891613,33.7564076 C36.2891613,34.2111185 35.9436904,34.5797346 35.5175304,34.5797346 Z M41.0732733,34.5797346 C40.6471133,34.5797346 40.3016424,34.2111185 40.3016424,33.7564076 C40.3016424,33.3016966 40.6471133,32.9330805 41.0732733,32.9330805 C41.4994333,32.9330805 41.8449043,33.3016966 41.8449043,33.7564076 C41.8449043,34.2111185 41.4994333,34.5797346 41.0732733,34.5797346 Z M43.8511448,35.8970578 C43.4249848,35.8970578 43.0795138,35.5284417 43.0795138,35.0737308 C43.0795138,34.6190198 43.4249848,34.2504038 43.8511448,34.2504038 C44.2773048,34.2504038 44.6227758,34.6190198 44.6227758,35.0737308 C44.6227758,35.5284417 44.2773048,35.8970578 43.8511448,35.8970578 Z M45.3944067,38.861035 C44.9682467,38.861035 44.6227758,38.492419 44.6227758,38.037708 C44.6227758,37.5829971 44.9682467,37.214381 45.3944067,37.214381 C45.8205667,37.214381 46.1660377,37.5829971 46.1660377,38.037708 C46.1660377,38.492419 45.8205667,38.861035 45.3944067,38.861035 Z M41.6905781,43.1423355 C41.2644181,43.1423355 40.9189471,42.7737195 40.9189471,42.3190085 C40.9189471,41.8642975 41.2644181,41.4956815 41.6905781,41.4956815 C42.1167381,41.4956815 42.4622091,41.8642975 42.4622091,42.3190085 C42.4622091,42.7737195 42.1167381,43.1423355 41.6905781,43.1423355 Z M39.221359,42.1543431 C38.795199,42.1543431 38.449728,41.785727 38.449728,41.3310161 C38.449728,40.8763051 38.795199,40.5076891 39.221359,40.5076891 C39.647519,40.5076891 39.99299,40.8763051 39.99299,41.3310161 C39.99299,41.785727 39.647519,42.1543431 39.221359,42.1543431 Z M37.9867495,39.8490275 C37.5605894,39.8490275 37.2151185,39.4804114 37.2151185,39.0257004 C37.2151185,38.5709895 37.5605894,38.2023734 37.9867495,38.2023734 C38.4129095,38.2023734 38.7583804,38.5709895 38.7583804,39.0257004 C38.7583804,39.4804114 38.4129095,39.8490275 37.9867495,39.8490275 Z M37.6780971,37.214381 C37.2519371,37.214381 36.9064661,36.845765 36.9064661,36.391054 C36.9064661,35.936343 37.2519371,35.567727 37.6780971,35.567727 C38.1042571,35.567727 38.449728,35.936343 38.449728,36.391054 C38.449728,36.845765 38.1042571,37.214381 37.6780971,37.214381 Z M37.9867495,34.5797346 C37.5605894,34.5797346 37.2151185,34.2111185 37.2151185,33.7564076 C37.2151185,33.3016966 37.5605894,32.9330805 37.9867495,32.9330805 C38.4129095,32.9330805 38.7583804,33.3016966 38.7583804,33.7564076 C38.7583804,34.2111185 38.4129095,34.5797346 37.9867495,34.5797346 Z M39.5300114,32.2744189 C39.1038514,32.2744189 38.7583804,31.9058029 38.7583804,31.4510919 C38.7583804,30.996381 39.1038514,30.6277649 39.5300114,30.6277649 C39.9561714,30.6277649 40.3016424,30.996381 40.3016424,31.4510919 C40.3016424,31.9058029 39.9561714,32.2744189 39.5300114,32.2744189 Z M41.3819257,30.6277649 C40.9557657,30.6277649 40.6102947,30.2591488 40.6102947,29.8044379 C40.6102947,29.3497269 40.9557657,28.9811109 41.3819257,28.9811109 C41.8080857,28.9811109 42.1535567,29.3497269 42.1535567,29.8044379 C42.1535567,30.2591488 41.8080857,30.6277649 41.3819257,30.6277649 Z M44.1597972,29.9691033 C43.7336372,29.9691033 43.3881662,29.6004872 43.3881662,29.1457763 C43.3881662,28.6910653 43.7336372,28.3224493 44.1597972,28.3224493 C44.5859572,28.3224493 44.9314281,28.6910653 44.9314281,29.1457763 C44.9314281,29.6004872 44.5859572,29.9691033 44.1597972,29.9691033 Z M46.6290163,30.2984341 C46.2028563,30.2984341 45.8573853,29.929818 45.8573853,29.4751071 C45.8573853,29.0203961 46.2028563,28.6517801 46.6290163,28.6517801 C47.0551763,28.6517801 47.4006472,29.0203961 47.4006472,29.4751071 C47.4006472,29.929818 47.0551763,30.2984341 46.6290163,30.2984341 Z M49.0982354,31.6157573 C48.6720754,31.6157573 48.3266044,31.2471413 48.3266044,30.7924303 C48.3266044,30.3377194 48.6720754,29.9691033 49.0982354,29.9691033 C49.5243954,29.9691033 49.8698663,30.3377194 49.8698663,30.7924303 C49.8698663,31.2471413 49.5243954,31.6157573 49.0982354,31.6157573 Z M81.1980836,69.8181307 C80.7719236,69.8181307 80.4264526,69.4495147 80.4264526,68.9948037 C80.4264526,68.5400928 80.7719236,68.1714767 81.1980836,68.1714767 C81.6242436,68.1714767 81.9697145,68.5400928 81.9697145,68.9948037 C81.9697145,69.4495147 81.6242436,69.8181307 81.1980836,69.8181307 Z M80.5807788,66.8541535 C80.1546188,66.8541535 79.8091478,66.4855374 79.8091478,66.0308265 C79.8091478,65.5761155 80.1546188,65.2074995 80.5807788,65.2074995 C81.0069388,65.2074995 81.3524098,65.5761155 81.3524098,66.0308265 C81.3524098,66.4855374 81.0069388,66.8541535 80.5807788,66.8541535 Z M80.8894312,63.8901763 C80.4632712,63.8901763 80.1178002,63.5215602 80.1178002,63.0668492 C80.1178002,62.6121383 80.4632712,62.2435222 80.8894312,62.2435222 C81.3155912,62.2435222 81.6610622,62.6121383 81.6610622,63.0668492 C81.6610622,63.5215602 81.3155912,63.8901763 80.8894312,63.8901763 Z M82.1240407,61.2555298 C81.6978807,61.2555298 81.3524098,60.8869137 81.3524098,60.4322028 C81.3524098,59.9774918 81.6978807,59.6088758 82.1240407,59.6088758 C82.5502007,59.6088758 82.8956717,59.9774918 82.8956717,60.4322028 C82.8956717,60.8869137 82.5502007,61.2555298 82.1240407,61.2555298 Z M83.6673027,58.6208834 C83.2411426,58.6208834 82.8956717,58.2522673 82.8956717,57.7975564 C82.8956717,57.3428454 83.2411426,56.9742293 83.6673027,56.9742293 C84.0934627,56.9742293 84.4389336,57.3428454 84.4389336,57.7975564 C84.4389336,58.2522673 84.0934627,58.6208834 83.6673027,58.6208834 Z M84.2846074,55.9862369 C83.8584474,55.9862369 83.5129765,55.6176209 83.5129765,55.1629099 C83.5129765,54.708199 83.8584474,54.3395829 84.2846074,54.3395829 C84.7107675,54.3395829 85.0562384,54.708199 85.0562384,55.1629099 C85.0562384,55.6176209 84.7107675,55.9862369 84.2846074,55.9862369 Z M84.2846074,53.3515905 C83.8584474,53.3515905 83.5129765,52.9829744 83.5129765,52.5282635 C83.5129765,52.0735525 83.8584474,51.7049365 84.2846074,51.7049365 C84.7107675,51.7049365 85.0562384,52.0735525 85.0562384,52.5282635 C85.0562384,52.9829744 84.7107675,53.3515905 84.2846074,53.3515905 Z M83.6673027,50.716944 C83.2411426,50.716944 82.8956717,50.348328 82.8956717,49.893617 C82.8956717,49.4389061 83.2411426,49.07029 83.6673027,49.07029 C84.0934627,49.07029 84.4389336,49.4389061 84.4389336,49.893617 C84.4389336,50.348328 84.0934627,50.716944 83.6673027,50.716944 Z M82.1240407,48.0822976 C81.6978807,48.0822976 81.3524098,47.7136815 81.3524098,47.2589706 C81.3524098,46.8042596 81.6978807,46.4356436 82.1240407,46.4356436 C82.5502007,46.4356436 82.8956717,46.8042596 82.8956717,47.2589706 C82.8956717,47.7136815 82.5502007,48.0822976 82.1240407,48.0822976 Z M80.2721264,46.4356436 C79.8459664,46.4356436 79.5004954,46.0670275 79.5004954,45.6123166 C79.5004954,45.1576056 79.8459664,44.7889895 80.2721264,44.7889895 C80.6982864,44.7889895 81.0437574,45.1576056 81.0437574,45.6123166 C81.0437574,46.0670275 80.6982864,46.4356436 80.2721264,46.4356436 Z M77.8029073,45.4476511 C77.3767473,45.4476511 77.0312764,45.0790351 77.0312764,44.6243241 C77.0312764,44.1696132 77.3767473,43.8009971 77.8029073,43.8009971 C78.2290673,43.8009971 78.5745383,44.1696132 78.5745383,44.6243241 C78.5745383,45.0790351 78.2290673,45.4476511 77.8029073,45.4476511 Z M75.0250358,45.1183203 C74.5988758,45.1183203 74.2534049,44.7497043 74.2534049,44.2949933 C74.2534049,43.8402824 74.5988758,43.4716663 75.0250358,43.4716663 C75.4511959,43.4716663 75.7966668,43.8402824 75.7966668,44.2949933 C75.7966668,44.7497043 75.4511959,45.1183203 75.0250358,45.1183203 Z M72.5558167,45.4476511 C72.1296567,45.4476511 71.7841858,45.0790351 71.7841858,44.6243241 C71.7841858,44.1696132 72.1296567,43.8009971 72.5558167,43.8009971 C72.9819768,43.8009971 73.3274477,44.1696132 73.3274477,44.6243241 C73.3274477,45.0790351 72.9819768,45.4476511 72.5558167,45.4476511 Z M70.39525,46.4356436 C69.96909,46.4356436 69.6236191,46.0670275 69.6236191,45.6123166 C69.6236191,45.1576056 69.96909,44.7889895 70.39525,44.7889895 C70.8214101,44.7889895 71.166881,45.1576056 71.166881,45.6123166 C71.166881,46.0670275 70.8214101,46.4356436 70.39525,46.4356436 Z M68.2346833,48.0822976 C67.8085233,48.0822976 67.4630524,47.7136815 67.4630524,47.2589706 C67.4630524,46.8042596 67.8085233,46.4356436 68.2346833,46.4356436 C68.6608434,46.4356436 69.0063143,46.8042596 69.0063143,47.2589706 C69.0063143,47.7136815 68.6608434,48.0822976 68.2346833,48.0822976 Z M66.6914214,50.3876132 C66.2652614,50.3876132 65.9197904,50.0189972 65.9197904,49.5642862 C65.9197904,49.1095753 66.2652614,48.7409592 66.6914214,48.7409592 C67.1175814,48.7409592 67.4630524,49.1095753 67.4630524,49.5642862 C67.4630524,50.0189972 67.1175814,50.3876132 66.6914214,50.3876132 Z M106.198927,74.0994312 C105.772767,74.0994312 105.427296,73.7308152 105.427296,73.2761042 C105.427296,72.8213933 105.772767,72.4527772 106.198927,72.4527772 C106.625087,72.4527772 106.970558,72.8213933 106.970558,73.2761042 C106.970558,73.7308152 106.625087,74.0994312 106.198927,74.0994312 Z M104.655665,71.7941156 C104.229505,71.7941156 103.884034,71.4254995 103.884034,70.9707886 C103.884034,70.5160776 104.229505,70.1474616 104.655665,70.1474616 C105.081825,70.1474616 105.427296,70.5160776 105.427296,70.9707886 C105.427296,71.4254995 105.081825,71.7941156 104.655665,71.7941156 Z M102.803751,70.1474616 C102.377591,70.1474616 102.03212,69.7788455 102.03212,69.3241345 C102.03212,68.8694236 102.377591,68.5008075 102.803751,68.5008075 C103.229911,68.5008075 103.575382,68.8694236 103.575382,69.3241345 C103.575382,69.7788455 103.229911,70.1474616 102.803751,70.1474616 Z M100.334532,69.1594691 C99.9083715,69.1594691 99.5629006,68.7908531 99.5629006,68.3361421 C99.5629006,67.8814312 99.9083715,67.5128151 100.334532,67.5128151 C100.760692,67.5128151 101.106163,67.8814312 101.106163,68.3361421 C101.106163,68.7908531 100.760692,69.1594691 100.334532,69.1594691 Z M97.5566601,69.1594691 C97.1305,69.1594691 96.7850291,68.7908531 96.7850291,68.3361421 C96.7850291,67.8814312 97.1305,67.5128151 97.5566601,67.5128151 C97.9828201,67.5128151 98.328291,67.8814312 98.328291,68.3361421 C98.328291,68.7908531 97.9828201,69.1594691 97.5566601,69.1594691 Z M94.7787886,70.1474616 C94.3526286,70.1474616 94.0071576,69.7788455 94.0071576,69.3241345 C94.0071576,68.8694236 94.3526286,68.5008075 94.7787886,68.5008075 C95.2049486,68.5008075 95.5504195,68.8694236 95.5504195,69.3241345 C95.5504195,69.7788455 95.2049486,70.1474616 94.7787886,70.1474616 Z M92.6182219,71.7941156 C92.1920619,71.7941156 91.8465909,71.4254995 91.8465909,70.9707886 C91.8465909,70.5160776 92.1920619,70.1474616 92.6182219,70.1474616 C93.0443819,70.1474616 93.3898528,70.5160776 93.3898528,70.9707886 C93.3898528,71.4254995 93.0443819,71.7941156 92.6182219,71.7941156 Z M90.4576552,73.1114388 C90.0314952,73.1114388 89.6860242,72.7428227 89.6860242,72.2881118 C89.6860242,71.8334008 90.0314952,71.4647848 90.4576552,71.4647848 C90.8838152,71.4647848 91.2292861,71.8334008 91.2292861,72.2881118 C91.2292861,72.7428227 90.8838152,73.1114388 90.4576552,73.1114388 Z M87.6797837,73.7701004 C87.2536237,73.7701004 86.9081527,73.4014844 86.9081527,72.9467734 C86.9081527,72.4920624 87.2536237,72.1234464 87.6797837,72.1234464 C88.1059437,72.1234464 88.4514147,72.4920624 88.4514147,72.9467734 C88.4514147,73.4014844 88.1059437,73.7701004 87.6797837,73.7701004 Z M85.2105646,73.4407696 C84.7844046,73.4407696 84.4389336,73.0721535 84.4389336,72.6174426 C84.4389336,72.1627316 84.7844046,71.7941156 85.2105646,71.7941156 C85.6367246,71.7941156 85.9821956,72.1627316 85.9821956,72.6174426 C85.9821956,73.0721535 85.6367246,73.4407696 85.2105646,73.4407696 Z M82.7413455,72.1234464 C82.3151855,72.1234464 81.9697145,71.7548303 81.9697145,71.3001194 C81.9697145,70.8454084 82.3151855,70.4767924 82.7413455,70.4767924 C83.1675055,70.4767924 83.5129765,70.8454084 83.5129765,71.3001194 C83.5129765,71.7548303 83.1675055,72.1234464 82.7413455,72.1234464 Z" id="Oval-6" fill-opacity="0.814877717" fill="#F89090"></path>
                                <g id="Triangle-1-+-Triangle-3">
                                    <polygon id="Triangle-1" fill="#FF697B" transform="translate(16.501309, 15.200414) rotate(-54.000000) translate(-16.501309, -15.200414) " points="9.5114409 1.12919997 24.5064249 28.9484438 19.3545917 27.8576654 12.9954287 29.2716286 12.7487501 26.644413 8.49619215 25.811083"></polygon>
                                    <polygon id="Triangle-2" fill="#BC4856" transform="translate(25.906835, 23.089390) rotate(-54.000000) translate(-25.906835, -23.089390) " points="29.2102612 22.9937093 22.8529889 24.3997406 22.6034085 21.7790392"></polygon>
                                    <polygon id="Triangle-2" fill="#DC5868" transform="translate(15.297180, 16.988569) rotate(-54.000000) translate(-15.297180, -16.988569) " points="10.3811177 2.92540855 20.2132428 29.6388774 13.8551135 31.0517303 15.1863803 28.7148423"></polygon>
                                </g>
                            </g>
                            <g id="medium" transform="translate(117.447056, 0.000000)">
                                <path d="M38.7421643,20.3383096 C38.399202,20.3383096 38.1211762,20.0397598 38.1211762,19.6714798 C38.1211762,19.3031999 38.399202,19.00465 38.7421643,19.00465 C39.0851266,19.00465 39.3631524,19.3031999 39.3631524,19.6714798 C39.3631524,20.0397598 39.0851266,20.3383096 38.7421643,20.3383096 Z M39.3631524,23.3390439 C39.0201902,23.3390439 38.7421643,23.040494 38.7421643,22.672214 C38.7421643,22.3039341 39.0201902,22.0053842 39.3631524,22.0053842 C39.7061147,22.0053842 39.9841406,22.3039341 39.9841406,22.672214 C39.9841406,23.040494 39.7061147,23.3390439 39.3631524,23.3390439 Z M39.0526584,26.3397781 C38.7096961,26.3397781 38.4316702,26.0412282 38.4316702,25.6729482 C38.4316702,25.3046683 38.7096961,25.0061184 39.0526584,25.0061184 C39.3956206,25.0061184 39.6736465,25.3046683 39.6736465,25.6729482 C39.6736465,26.0412282 39.3956206,26.3397781 39.0526584,26.3397781 Z M37.8106821,29.0070974 C37.4677198,29.0070974 37.189694,28.7085475 37.189694,28.3402675 C37.189694,27.9719876 37.4677198,27.6734377 37.8106821,27.6734377 C38.1536444,27.6734377 38.4316702,27.9719876 38.4316702,28.3402675 C38.4316702,28.7085475 38.1536444,29.0070974 37.8106821,29.0070974 Z M36.2582118,31.6744167 C35.9152495,31.6744167 35.6372237,31.3758668 35.6372237,31.0075868 C35.6372237,30.6393069 35.9152495,30.340757 36.2582118,30.340757 C36.6011741,30.340757 36.8791999,30.6393069 36.8791999,31.0075868 C36.8791999,31.3758668 36.6011741,31.6744167 36.2582118,31.6744167 Z M35.6372237,34.341736 C35.2942614,34.341736 35.0162356,34.0431861 35.0162356,33.6749061 C35.0162356,33.3066262 35.2942614,33.0080763 35.6372237,33.0080763 C35.980186,33.0080763 36.2582118,33.3066262 36.2582118,33.6749061 C36.2582118,34.0431861 35.980186,34.341736 35.6372237,34.341736 Z M35.6372237,37.0090553 C35.2942614,37.0090553 35.0162356,36.7105054 35.0162356,36.3422254 C35.0162356,35.9739455 35.2942614,35.6753956 35.6372237,35.6753956 C35.980186,35.6753956 36.2582118,35.9739455 36.2582118,36.3422254 C36.2582118,36.7105054 35.980186,37.0090553 35.6372237,37.0090553 Z M36.2582118,39.6763746 C35.9152495,39.6763746 35.6372237,39.3778247 35.6372237,39.0095447 C35.6372237,38.6412648 35.9152495,38.3427149 36.2582118,38.3427149 C36.6011741,38.3427149 36.8791999,38.6412648 36.8791999,39.0095447 C36.8791999,39.3778247 36.6011741,39.6763746 36.2582118,39.6763746 Z M37.8106821,42.3436938 C37.4677198,42.3436938 37.189694,42.045144 37.189694,41.676864 C37.189694,41.3085841 37.4677198,41.0100342 37.8106821,41.0100342 C38.1536444,41.0100342 38.4316702,41.3085841 38.4316702,41.676864 C38.4316702,42.045144 38.1536444,42.3436938 37.8106821,42.3436938 Z M39.6736465,44.0107684 C39.3306842,44.0107684 39.0526584,43.7122185 39.0526584,43.3439386 C39.0526584,42.9756586 39.3306842,42.6771088 39.6736465,42.6771088 C40.0166088,42.6771088 40.2946346,42.9756586 40.2946346,43.3439386 C40.2946346,43.7122185 40.0166088,44.0107684 39.6736465,44.0107684 Z M42.157599,45.0110131 C41.8146367,45.0110131 41.5366109,44.7124633 41.5366109,44.3441833 C41.5366109,43.9759034 41.8146367,43.6773535 42.157599,43.6773535 C42.5005613,43.6773535 42.7785871,43.9759034 42.7785871,44.3441833 C42.7785871,44.7124633 42.5005613,45.0110131 42.157599,45.0110131 Z M44.9520456,45.3444281 C44.6090833,45.3444281 44.3310574,45.0458782 44.3310574,44.6775982 C44.3310574,44.3093183 44.6090833,44.0107684 44.9520456,44.0107684 C45.2950078,44.0107684 45.5730337,44.3093183 45.5730337,44.6775982 C45.5730337,45.0458782 45.2950078,45.3444281 44.9520456,45.3444281 Z M47.4359981,45.0110131 C47.0930358,45.0110131 46.8150099,44.7124633 46.8150099,44.3441833 C46.8150099,43.9759034 47.0930358,43.6773535 47.4359981,43.6773535 C47.7789603,43.6773535 48.0569862,43.9759034 48.0569862,44.3441833 C48.0569862,44.7124633 47.7789603,45.0110131 47.4359981,45.0110131 Z M49.6094565,44.0107684 C49.2664942,44.0107684 48.9884684,43.7122185 48.9884684,43.3439386 C48.9884684,42.9756586 49.2664942,42.6771088 49.6094565,42.6771088 C49.9524188,42.6771088 50.2304446,42.9756586 50.2304446,43.3439386 C50.2304446,43.7122185 49.9524188,44.0107684 49.6094565,44.0107684 Z M51.7829149,42.3436938 C51.4399527,42.3436938 51.1619268,42.045144 51.1619268,41.676864 C51.1619268,41.3085841 51.4399527,41.0100342 51.7829149,41.0100342 C52.1258772,41.0100342 52.4039031,41.3085841 52.4039031,41.676864 C52.4039031,42.045144 52.1258772,42.3436938 51.7829149,42.3436938 Z M53.3353852,40.0097895 C52.992423,40.0097895 52.7143971,39.7112396 52.7143971,39.3429596 C52.7143971,38.9746797 52.992423,38.6761298 53.3353852,38.6761298 C53.6783475,38.6761298 53.9563734,38.9746797 53.9563734,39.3429596 C53.9563734,39.7112396 53.6783475,40.0097895 53.3353852,40.0097895 Z M32.221789,28.6736824 C31.8788267,28.6736824 31.6008009,28.3751326 31.6008009,28.0068526 C31.6008009,27.6385727 31.8788267,27.3400228 32.221789,27.3400228 C32.5647513,27.3400228 32.8427771,27.6385727 32.8427771,28.0068526 C32.8427771,28.3751326 32.5647513,28.6736824 32.221789,28.6736824 Z M13.2816512,15.6705009 C12.9386889,15.6705009 12.6606631,15.371951 12.6606631,15.003671 C12.6606631,14.6353911 12.9386889,14.3368412 13.2816512,14.3368412 C13.6246135,14.3368412 13.9026393,14.6353911 13.9026393,15.003671 C13.9026393,15.371951 13.6246135,15.6705009 13.2816512,15.6705009 Z M13.9026393,18.3378202 C13.559677,18.3378202 13.2816512,18.0392703 13.2816512,17.6709903 C13.2816512,17.3027104 13.559677,17.0041605 13.9026393,17.0041605 C14.2456016,17.0041605 14.5236274,17.3027104 14.5236274,17.6709903 C14.5236274,18.0392703 14.2456016,18.3378202 13.9026393,18.3378202 Z M15.7656037,20.0048947 C15.4226414,20.0048947 15.1446156,19.7063449 15.1446156,19.3380649 C15.1446156,18.969785 15.4226414,18.6712351 15.7656037,18.6712351 C16.108566,18.6712351 16.3865918,18.969785 16.3865918,19.3380649 C16.3865918,19.7063449 16.108566,20.0048947 15.7656037,20.0048947 Z M18.2495562,21.0051395 C17.9065939,21.0051395 17.6285681,20.7065896 17.6285681,20.3383096 C17.6285681,19.9700297 17.9065939,19.6714798 18.2495562,19.6714798 C18.5925185,19.6714798 18.8705443,19.9700297 18.8705443,20.3383096 C18.8705443,20.7065896 18.5925185,21.0051395 18.2495562,21.0051395 Z M21.0440027,21.0051395 C20.7010405,21.0051395 20.4230146,20.7065896 20.4230146,20.3383096 C20.4230146,19.9700297 20.7010405,19.6714798 21.0440027,19.6714798 C21.386965,19.6714798 21.6649909,19.9700297 21.6649909,20.3383096 C21.6649909,20.7065896 21.386965,21.0051395 21.0440027,21.0051395 Z M23.5279552,21.0051395 C23.184993,21.0051395 22.9069671,20.7065896 22.9069671,20.3383096 C22.9069671,19.9700297 23.184993,19.6714798 23.5279552,19.6714798 C23.8709175,19.6714798 24.1489434,19.9700297 24.1489434,20.3383096 C24.1489434,20.7065896 23.8709175,21.0051395 23.5279552,21.0051395 Z M29.1168484,21.0051395 C28.7738861,21.0051395 28.4958602,20.7065896 28.4958602,20.3383096 C28.4958602,19.9700297 28.7738861,19.6714798 29.1168484,19.6714798 C29.4598106,19.6714798 29.7378365,19.9700297 29.7378365,20.3383096 C29.7378365,20.7065896 29.4598106,21.0051395 29.1168484,21.0051395 Z M31.9112949,22.3387991 C31.5683327,22.3387991 31.2903068,22.0402492 31.2903068,21.6719693 C31.2903068,21.3036894 31.5683327,21.0051395 31.9112949,21.0051395 C32.2542572,21.0051395 32.5322831,21.3036894 32.5322831,21.6719693 C32.5322831,22.0402492 32.2542572,22.3387991 31.9112949,22.3387991 Z M33.4637652,25.3395333 C33.120803,25.3395333 32.8427771,25.0409834 32.8427771,24.6727035 C32.8427771,24.3044236 33.120803,24.0058737 33.4637652,24.0058737 C33.8067275,24.0058737 34.0847534,24.3044236 34.0847534,24.6727035 C34.0847534,25.0409834 33.8067275,25.3395333 33.4637652,25.3395333 Z M29.7378365,29.6739272 C29.3948742,29.6739272 29.1168484,29.3753773 29.1168484,29.0070974 C29.1168484,28.6388174 29.3948742,28.3402675 29.7378365,28.3402675 C30.0807988,28.3402675 30.3588246,28.6388174 30.3588246,29.0070974 C30.3588246,29.3753773 30.0807988,29.6739272 29.7378365,29.6739272 Z M27.253884,28.6736824 C26.9109217,28.6736824 26.6328959,28.3751326 26.6328959,28.0068526 C26.6328959,27.6385727 26.9109217,27.3400228 27.253884,27.3400228 C27.5968463,27.3400228 27.8748721,27.6385727 27.8748721,28.0068526 C27.8748721,28.3751326 27.5968463,28.6736824 27.253884,28.6736824 Z M26.0119077,26.3397781 C25.6689455,26.3397781 25.3909196,26.0412282 25.3909196,25.6729482 C25.3909196,25.3046683 25.6689455,25.0061184 26.0119077,25.0061184 C26.35487,25.0061184 26.6328959,25.3046683 26.6328959,25.6729482 C26.6328959,26.0412282 26.35487,26.3397781 26.0119077,26.3397781 Z M25.7014137,23.6724588 C25.3584514,23.6724588 25.0804256,23.3739089 25.0804256,23.0056289 C25.0804256,22.637349 25.3584514,22.3387991 25.7014137,22.3387991 C26.044376,22.3387991 26.3224018,22.637349 26.3224018,23.0056289 C26.3224018,23.3739089 26.044376,23.6724588 25.7014137,23.6724588 Z M26.0119077,21.0051395 C25.6689455,21.0051395 25.3909196,20.7065896 25.3909196,20.3383096 C25.3909196,19.9700297 25.6689455,19.6714798 26.0119077,19.6714798 C26.35487,19.6714798 26.6328959,19.9700297 26.6328959,20.3383096 C26.6328959,20.7065896 26.35487,21.0051395 26.0119077,21.0051395 Z M27.5643781,18.6712351 C27.2214158,18.6712351 26.9433899,18.3726852 26.9433899,18.0044053 C26.9433899,17.6361253 27.2214158,17.3375754 27.5643781,17.3375754 C27.9073403,17.3375754 28.1853662,17.6361253 28.1853662,18.0044053 C28.1853662,18.3726852 27.9073403,18.6712351 27.5643781,18.6712351 Z M29.4273424,17.0041605 C29.0843802,17.0041605 28.8063543,16.7056106 28.8063543,16.3373307 C28.8063543,15.9690508 29.0843802,15.6705009 29.4273424,15.6705009 C29.7703047,15.6705009 30.0483306,15.9690508 30.0483306,16.3373307 C30.0483306,16.7056106 29.7703047,17.0041605 29.4273424,17.0041605 Z M32.221789,16.3373307 C31.8788267,16.3373307 31.6008009,16.0387808 31.6008009,15.6705009 C31.6008009,15.3022209 31.8788267,15.003671 32.221789,15.003671 C32.5647513,15.003671 32.8427771,15.3022209 32.8427771,15.6705009 C32.8427771,16.0387808 32.5647513,16.3373307 32.221789,16.3373307 Z M34.7057415,16.6707456 C34.3627792,16.6707456 34.0847534,16.3721957 34.0847534,16.0039158 C34.0847534,15.6356358 34.3627792,15.337086 34.7057415,15.337086 C35.0487038,15.337086 35.3267296,15.6356358 35.3267296,16.0039158 C35.3267296,16.3721957 35.0487038,16.6707456 34.7057415,16.6707456 Z M37.189694,18.0044053 C36.8467317,18.0044053 36.5687059,17.7058554 36.5687059,17.3375754 C36.5687059,16.9692955 36.8467317,16.6707456 37.189694,16.6707456 C37.5326563,16.6707456 37.8106821,16.9692955 37.8106821,17.3375754 C37.8106821,17.7058554 37.5326563,18.0044053 37.189694,18.0044053 Z M63.8921834,44.0107684 C63.5492211,44.0107684 63.2711952,43.7122185 63.2711952,43.3439386 C63.2711952,42.9756586 63.5492211,42.6771088 63.8921834,42.6771088 C64.2351456,42.6771088 64.5131715,42.9756586 64.5131715,43.3439386 C64.5131715,43.7122185 64.2351456,44.0107684 63.8921834,44.0107684 Z M63.2711952,41.3434491 C62.928233,41.3434491 62.6502071,41.0448992 62.6502071,40.6766193 C62.6502071,40.3083393 62.928233,40.0097895 63.2711952,40.0097895 C63.6141575,40.0097895 63.8921834,40.3083393 63.8921834,40.6766193 C63.8921834,41.0448992 63.6141575,41.3434491 63.2711952,41.3434491 Z M61.4082309,39.6763746 C61.0652686,39.6763746 60.7872427,39.3778247 60.7872427,39.0095447 C60.7872427,38.6412648 61.0652686,38.3427149 61.4082309,38.3427149 C61.7511931,38.3427149 62.029219,38.6412648 62.029219,39.0095447 C62.029219,39.3778247 61.7511931,39.6763746 61.4082309,39.6763746 Z M58.9242784,38.6761298 C58.5813161,38.6761298 58.3032902,38.3775799 58.3032902,38.0093 C58.3032902,37.64102 58.5813161,37.3424702 58.9242784,37.3424702 C59.2672406,37.3424702 59.5452665,37.64102 59.5452665,38.0093 C59.5452665,38.3775799 59.2672406,38.6761298 58.9242784,38.6761298 Z M56.1298318,38.6761298 C55.7868695,38.6761298 55.5088437,38.3775799 55.5088437,38.0093 C55.5088437,37.64102 55.7868695,37.3424702 56.1298318,37.3424702 C56.4727941,37.3424702 56.7508199,37.64102 56.7508199,38.0093 C56.7508199,38.3775799 56.4727941,38.6761298 56.1298318,38.6761298 Z" id="Oval-6" fill-opacity="0.75353827" fill="#F9B951"></path>
                                <g id="Triangle-1-+-Triangle-4">
                                    <polygon id="Triangle-1" fill="#F5A623" transform="translate(8.296567, 7.694427) rotate(-54.000000) translate(-8.296567, -7.694427) " points="4.7807792 0.571570015 12.3230075 14.6536883 9.73172077 14.1015356 6.53316725 14.8172847 6.40909204 13.4873866 4.27012592 13.0655544"></polygon>
                                    <polygon id="Triangle-2" fill="#B07618" transform="translate(13.027333, 11.687793) rotate(-54.000000) translate(-13.027333, -11.687793) " points="14.6889017 11.6393592 11.4912992 12.3510931 11.3657644 11.0244925"></polygon>
                                    <polygon id="Triangle-2" fill="#D8911E" transform="translate(7.691031, 8.599679) rotate(-54.000000) translate(-7.691031, -8.599679) " points="5.21833327 1.48089818 10.1637292 15.0032725 6.96569557 15.7184595 7.63530066 14.5355254"></polygon>
                                </g>
                            </g>
                            <g id="small" transform="translate(79.400826, 19.354329)">
                                <path d="M25.5101103,20.8488718 C25.3399335,20.8488718 25.201978,20.6983177 25.201978,20.5125997 C25.201978,20.3268817 25.3399335,20.1763276 25.5101103,20.1763276 C25.6802871,20.1763276 25.8182426,20.3268817 25.8182426,20.5125997 C25.8182426,20.6983177 25.6802871,20.8488718 25.5101103,20.8488718 Z M6.40590818,17.4861506 C6.23573141,17.4861506 6.09777589,17.3355964 6.09777589,17.1498784 C6.09777589,16.9641605 6.23573141,16.8136063 6.40590818,16.8136063 C6.57608495,16.8136063 6.71404047,16.9641605 6.71404047,17.1498784 C6.71404047,17.3355964 6.57608495,17.4861506 6.40590818,17.4861506 Z M7.33030506,15.4685178 C7.16012829,15.4685178 7.02217276,15.3179637 7.02217276,15.1322457 C7.02217276,14.9465277 7.16012829,14.7959736 7.33030506,14.7959736 C7.50048182,14.7959736 7.63843735,14.9465277 7.63843735,15.1322457 C7.63843735,15.3179637 7.50048182,15.4685178 7.33030506,15.4685178 Z M9.17909881,13.7871572 C9.00892204,13.7871572 8.87096652,13.636603 8.87096652,13.4508851 C8.87096652,13.2651671 9.00892204,13.1146129 9.17909881,13.1146129 C9.34927557,13.1146129 9.4872311,13.2651671 9.4872311,13.4508851 C9.4872311,13.636603 9.34927557,13.7871572 9.17909881,13.7871572 Z M11.6441571,13.1146129 C11.4739804,13.1146129 11.3360249,12.9640588 11.3360249,12.7783408 C11.3360249,12.5926228 11.4739804,12.4420687 11.6441571,12.4420687 C11.8143339,12.4420687 11.9522894,12.5926228 11.9522894,12.7783408 C11.9522894,12.9640588 11.8143339,13.1146129 11.6441571,13.1146129 Z M14.4173478,13.1146129 C14.247171,13.1146129 14.1092155,12.9640588 14.1092155,12.7783408 C14.1092155,12.5926228 14.247171,12.4420687 14.4173478,12.4420687 C14.5875245,12.4420687 14.7254801,12.5926228 14.7254801,12.7783408 C14.7254801,12.9640588 14.5875245,13.1146129 14.4173478,13.1146129 Z M16.8824061,13.1146129 C16.7122293,13.1146129 16.5742738,12.9640588 16.5742738,12.7783408 C16.5742738,12.5926228 16.7122293,12.4420687 16.8824061,12.4420687 C17.0525829,12.4420687 17.1905384,12.5926228 17.1905384,12.7783408 C17.1905384,12.9640588 17.0525829,13.1146129 16.8824061,13.1146129 Z M22.4287874,13.1146129 C22.2586106,13.1146129 22.1206551,12.9640588 22.1206551,12.7783408 C22.1206551,12.5926228 22.2586106,12.4420687 22.4287874,12.4420687 C22.5989641,12.4420687 22.7369197,12.5926228 22.7369197,12.7783408 C22.7369197,12.9640588 22.5989641,13.1146129 22.4287874,13.1146129 Z M25.201978,14.4597014 C25.0318012,14.4597014 24.8938457,14.3091473 24.8938457,14.1234293 C24.8938457,13.9377113 25.0318012,13.7871572 25.201978,13.7871572 C25.3721548,13.7871572 25.5101103,13.9377113 25.5101103,14.1234293 C25.5101103,14.3091473 25.3721548,14.4597014 25.201978,14.4597014 Z M26.7426395,17.4861506 C26.5724627,17.4861506 26.4345072,17.3355964 26.4345072,17.1498784 C26.4345072,16.9641605 26.5724627,16.8136063 26.7426395,16.8136063 C26.9128162,16.8136063 27.0507718,16.9641605 27.0507718,17.1498784 C27.0507718,17.3355964 26.9128162,17.4861506 26.7426395,17.4861506 Z M23.045052,21.8576882 C22.8748752,21.8576882 22.7369197,21.7071341 22.7369197,21.5214161 C22.7369197,21.3356981 22.8748752,21.185144 23.045052,21.185144 C23.2152287,21.185144 23.3531842,21.3356981 23.3531842,21.5214161 C23.3531842,21.7071341 23.2152287,21.8576882 23.045052,21.8576882 Z M20.5799936,20.8488718 C20.4098169,20.8488718 20.2718613,20.6983177 20.2718613,20.5125997 C20.2718613,20.3268817 20.4098169,20.1763276 20.5799936,20.1763276 C20.7501704,20.1763276 20.8881259,20.3268817 20.8881259,20.5125997 C20.8881259,20.6983177 20.7501704,20.8488718 20.5799936,20.8488718 Z M19.3474645,18.4949669 C19.1772877,18.4949669 19.0393322,18.3444128 19.0393322,18.1586948 C19.0393322,17.9729769 19.1772877,17.8224227 19.3474645,17.8224227 C19.5176412,17.8224227 19.6555967,17.9729769 19.6555967,18.1586948 C19.6555967,18.3444128 19.5176412,18.4949669 19.3474645,18.4949669 Z M19.0393322,15.8047899 C18.8691554,15.8047899 18.7311999,15.6542358 18.7311999,15.4685178 C18.7311999,15.2827998 18.8691554,15.1322457 19.0393322,15.1322457 C19.2095089,15.1322457 19.3474645,15.2827998 19.3474645,15.4685178 C19.3474645,15.6542358 19.2095089,15.8047899 19.0393322,15.8047899 Z M19.3474645,13.1146129 C19.1772877,13.1146129 19.0393322,12.9640588 19.0393322,12.7783408 C19.0393322,12.5926228 19.1772877,12.4420687 19.3474645,12.4420687 C19.5176412,12.4420687 19.6555967,12.5926228 19.6555967,12.7783408 C19.6555967,12.9640588 19.5176412,13.1146129 19.3474645,13.1146129 Z M20.8881259,10.760708 C20.7179491,10.760708 20.5799936,10.6101539 20.5799936,10.4244359 C20.5799936,10.2387179 20.7179491,10.0881638 20.8881259,10.0881638 C21.0583027,10.0881638 21.1962582,10.2387179 21.1962582,10.4244359 C21.1962582,10.6101539 21.0583027,10.760708 20.8881259,10.760708 Z M22.7369197,9.07934741 C22.5667429,9.07934741 22.4287874,8.92879325 22.4287874,8.74307529 C22.4287874,8.55735732 22.5667429,8.40680316 22.7369197,8.40680316 C22.9070964,8.40680316 23.045052,8.55735732 23.045052,8.74307529 C23.045052,8.92879325 22.9070964,9.07934741 22.7369197,9.07934741 Z M25.5101103,8.40680316 C25.3399335,8.40680316 25.201978,8.256249 25.201978,8.07053103 C25.201978,7.88481307 25.3399335,7.73425891 25.5101103,7.73425891 C25.6802871,7.73425891 25.8182426,7.88481307 25.8182426,8.07053103 C25.8182426,8.256249 25.6802871,8.40680316 25.5101103,8.40680316 Z M27.9751686,8.74307529 C27.8049919,8.74307529 27.6670363,8.59252113 27.6670363,8.40680316 C27.6670363,8.22108519 27.8049919,8.07053103 27.9751686,8.07053103 C28.1453454,8.07053103 28.2833009,8.22108519 28.2833009,8.40680316 C28.2833009,8.59252113 28.1453454,8.74307529 27.9751686,8.74307529 Z M30.440227,10.0881638 C30.2700502,10.0881638 30.1320947,9.93760963 30.1320947,9.75189166 C30.1320947,9.5661737 30.2700502,9.41561954 30.440227,9.41561954 C30.6104037,9.41561954 30.7483593,9.5661737 30.7483593,9.75189166 C30.7483593,9.93760963 30.6104037,10.0881638 30.440227,10.0881638 Z" id="Oval-6" fill-opacity="0.724977355" fill="#9751D5" transform="translate(18.423068, 14.795974) scale(-1, 1) rotate(-14.000000) translate(-18.423068, -14.795974) "></path>
                                <g id="Triangle-1-+-Triangle-5">
                                    <polygon id="Triangle-1" fill="#9156FF" transform="translate(4.394489, 3.880142) rotate(-54.000000) translate(-4.394489, -3.880142) " points="2.64996622 0.288193968 6.3923954 7.3895918 5.10660736 7.1111496 3.51949549 7.47209094 3.45792977 6.80144358 2.39658172 6.58872002"></polygon>
                                    <polygon id="Triangle-2" fill="#643AB2" transform="translate(6.875729, 5.991170) rotate(-54.000000) translate(-6.875729, -5.991170) " points="7.70019432 5.80123765 6.11355433 6.16015421 6.05126438 5.49116972"></polygon>
                                    <polygon id="Triangle-2" fill="#7C49D9" transform="translate(4.094178, 4.336756) rotate(-54.000000) translate(-4.094178, -4.336756) " points="2.86723321 0.746863408 5.3211226 7.56599089 3.73426871 7.92664879 4.06652459 7.33011313"></polygon>
                                </g>
                            </g>
                            <g id="smaller" transform="translate(35.289256, 30.966926)">
                                <path d="M26.6907756,16.6937609 C26.5189139,16.6937609 26.3795925,16.5442799 26.3795925,16.3598857 C26.3795925,16.1754915 26.5189139,16.0260105 26.6907756,16.0260105 C26.8626373,16.0260105 27.0019587,16.1754915 27.0019587,16.3598857 C27.0019587,16.5442799 26.8626373,16.6937609 26.6907756,16.6937609 Z M7.39742298,13.3550087 C7.2255613,13.3550087 7.08623987,13.2055277 7.08623987,13.0211335 C7.08623987,12.8367393 7.2255613,12.6872583 7.39742298,12.6872583 C7.56928467,12.6872583 7.70860609,12.8367393 7.70860609,13.0211335 C7.70860609,13.2055277 7.56928467,13.3550087 7.39742298,13.3550087 Z M8.3309723,11.3517574 C8.15911062,11.3517574 8.01978919,11.2022764 8.01978919,11.0178822 C8.01978919,10.833488 8.15911062,10.684007 8.3309723,10.684007 C8.50283399,10.684007 8.64215541,10.833488 8.64215541,11.0178822 C8.64215541,11.2022764 8.50283399,11.3517574 8.3309723,11.3517574 Z M10.1980709,9.68238133 C10.0262093,9.68238133 9.88688784,9.5329003 9.88688784,9.34850611 C9.88688784,9.16411192 10.0262093,9.01463089 10.1980709,9.01463089 C10.3699326,9.01463089 10.5092541,9.16411192 10.5092541,9.34850611 C10.5092541,9.5329003 10.3699326,9.68238133 10.1980709,9.68238133 Z M12.6875358,9.01463089 C12.5156741,9.01463089 12.3763527,8.86514986 12.3763527,8.68075567 C12.3763527,8.49636148 12.5156741,8.34688045 12.6875358,8.34688045 C12.8593975,8.34688045 12.9987189,8.49636148 12.9987189,8.68075567 C12.9987189,8.86514986 12.8593975,9.01463089 12.6875358,9.01463089 Z M15.4881838,9.01463089 C15.3163221,9.01463089 15.1770007,8.86514986 15.1770007,8.68075567 C15.1770007,8.49636148 15.3163221,8.34688045 15.4881838,8.34688045 C15.6600454,8.34688045 15.7993669,8.49636148 15.7993669,8.68075567 C15.7993669,8.86514986 15.6600454,9.01463089 15.4881838,9.01463089 Z M17.9776486,9.01463089 C17.8057869,9.01463089 17.6664655,8.86514986 17.6664655,8.68075567 C17.6664655,8.49636148 17.8057869,8.34688045 17.9776486,8.34688045 C18.1495103,8.34688045 18.2888317,8.49636148 18.2888317,8.68075567 C18.2888317,8.86514986 18.1495103,9.01463089 17.9776486,9.01463089 Z M23.5789445,9.01463089 C23.4070829,9.01463089 23.2677614,8.86514986 23.2677614,8.68075567 C23.2677614,8.49636148 23.4070829,8.34688045 23.5789445,8.34688045 C23.7508062,8.34688045 23.8901276,8.49636148 23.8901276,8.68075567 C23.8901276,8.86514986 23.7508062,9.01463089 23.5789445,9.01463089 Z M26.3795925,10.3501318 C26.2077308,10.3501318 26.0684094,10.2006507 26.0684094,10.0162565 C26.0684094,9.83186235 26.2077308,9.68238133 26.3795925,9.68238133 C26.5514542,9.68238133 26.6907756,9.83186235 26.6907756,10.0162565 C26.6907756,10.2006507 26.5514542,10.3501318 26.3795925,10.3501318 Z M27.935508,13.3550087 C27.7636464,13.3550087 27.6243249,13.2055277 27.6243249,13.0211335 C27.6243249,12.8367393 27.7636464,12.6872583 27.935508,12.6872583 C28.1073697,12.6872583 28.2466911,12.8367393 28.2466911,13.0211335 C28.2466911,13.2055277 28.1073697,13.3550087 27.935508,13.3550087 Z M24.2013108,17.6953866 C24.0294491,17.6953866 23.8901276,17.5459055 23.8901276,17.3615113 C23.8901276,17.1771172 24.0294491,17.0276361 24.2013108,17.0276361 C24.3731724,17.0276361 24.5124939,17.1771172 24.5124939,17.3615113 C24.5124939,17.5459055 24.3731724,17.6953866 24.2013108,17.6953866 Z M21.7118459,16.6937609 C21.5399842,16.6937609 21.4006628,16.5442799 21.4006628,16.3598857 C21.4006628,16.1754915 21.5399842,16.0260105 21.7118459,16.0260105 C21.8837076,16.0260105 22.023029,16.1754915 22.023029,16.3598857 C22.023029,16.5442799 21.8837076,16.6937609 21.7118459,16.6937609 Z M20.4671135,14.3566344 C20.2952518,14.3566344 20.1559304,14.2071534 20.1559304,14.0227592 C20.1559304,13.838365 20.2952518,13.6888839 20.4671135,13.6888839 C20.6389752,13.6888839 20.7782966,13.838365 20.7782966,14.0227592 C20.7782966,14.2071534 20.6389752,14.3566344 20.4671135,14.3566344 Z M20.1559304,11.6856326 C19.9840687,11.6856326 19.8447473,11.5361516 19.8447473,11.3517574 C19.8447473,11.1673632 19.9840687,11.0178822 20.1559304,11.0178822 C20.3277921,11.0178822 20.4671135,11.1673632 20.4671135,11.3517574 C20.4671135,11.5361516 20.3277921,11.6856326 20.1559304,11.6856326 Z M20.4671135,9.01463089 C20.2952518,9.01463089 20.1559304,8.86514986 20.1559304,8.68075567 C20.1559304,8.49636148 20.2952518,8.34688045 20.4671135,8.34688045 C20.6389752,8.34688045 20.7782966,8.49636148 20.7782966,8.68075567 C20.7782966,8.86514986 20.6389752,9.01463089 20.4671135,9.01463089 Z M22.023029,6.67750436 C21.8511673,6.67750436 21.7118459,6.52802334 21.7118459,6.34362914 C21.7118459,6.15923495 21.8511673,6.00975393 22.023029,6.00975393 C22.1948907,6.00975393 22.3342121,6.15923495 22.3342121,6.34362914 C22.3342121,6.52802334 22.1948907,6.67750436 22.023029,6.67750436 Z M23.8901276,5.00812827 C23.718266,5.00812827 23.5789445,4.85864724 23.5789445,4.67425305 C23.5789445,4.48985886 23.718266,4.34037784 23.8901276,4.34037784 C24.0619893,4.34037784 24.2013108,4.48985886 24.2013108,4.67425305 C24.2013108,4.85864724 24.0619893,5.00812827 23.8901276,5.00812827 Z M26.6907756,4.34037784 C26.5189139,4.34037784 26.3795925,4.19089681 26.3795925,4.00650262 C26.3795925,3.82210843 26.5189139,3.6726274 26.6907756,3.6726274 C26.8626373,3.6726274 27.0019587,3.82210843 27.0019587,4.00650262 C27.0019587,4.19089681 26.8626373,4.34037784 26.6907756,4.34037784 Z M29.1802405,4.67425305 C29.0083788,4.67425305 28.8690574,4.52477203 28.8690574,4.34037784 C28.8690574,4.15598364 29.0083788,4.00650262 29.1802405,4.00650262 C29.3521022,4.00650262 29.4914236,4.15598364 29.4914236,4.34037784 C29.4914236,4.52477203 29.3521022,4.67425305 29.1802405,4.67425305 Z M31.6697053,6.00975393 C31.4978436,6.00975393 31.3585222,5.8602729 31.3585222,5.67587871 C31.3585222,5.49148452 31.4978436,5.34200349 31.6697053,5.34200349 C31.841567,5.34200349 31.9808884,5.49148452 31.9808884,5.67587871 C31.9808884,5.8602729 31.841567,6.00975393 31.6697053,6.00975393 Z" id="Oval-6" fill-opacity="0.715777853" fill="#7ED321" transform="translate(19.533564, 10.684007) scale(1, -1) translate(-19.533564, -10.684007) "></path>
                                <g id="Triangle-1-+-Triangle-5">
                                    <polygon id="Triangle-1" fill="#7ED321" transform="translate(4.432576, 3.852527) rotate(-54.000000) translate(-4.432576, -3.852527) " points="2.67078164 0.286181635 6.45026458 7.33696154 5.15174596 7.06050404 3.54892011 7.41887263 3.48674483 6.75300556 2.41488838 6.54179827"></polygon>
                                    <polygon id="Triangle-2" fill="#5D9C16" transform="translate(6.939065, 5.950653) rotate(-54.000000) translate(-6.939065, -5.950653) " points="7.77169277 5.75851121 6.16934348 6.11486946 6.10643679 5.45065341"></polygon>
                                    <polygon id="Triangle-2" fill="#6FBB1B" transform="translate(4.129129, 4.305772) rotate(-54.000000) translate(-4.129129, -4.305772) " points="2.8900362 0.741467762 5.36822152 7.5119893 3.76565621 7.87007647 4.10120174 7.27779285"></polygon>
                                </g>
                            </g>
                        </g>
                        <g id="big-envelope" transform="translate(0.000000, 9.000000)">
                            <path d="M61.3201558,8.43277999 C61.3051681,8.36370823 61.2979082,8.3323065 61.2877437,8.28324721 C61.2697307,8.196307 61.2514625,8.09531785 61.2342698,7.98217956 C61.1163354,7.20610054 61.1160011,6.37694742 61.3066821,5.62064515 C61.6375015,4.30850866 62.4776012,3.45172176 64.065978,3.16126834 C66.104397,2.78851942 67.2796859,3.59578513 67.9692046,5.29927209 C68.1379149,5.71607828 68.2659258,6.16461558 68.3651735,6.64752902 C68.4027388,6.83031196 68.4345238,7.00927954 68.4657361,7.20661807 C68.4792054,7.29177696 68.5212804,7.57223219 68.5301251,7.62673961 C68.6006548,8.06139342 69.0000853,10.5616293 69.621327,14.4552742 C69.8635677,15.9735245 70.121698,17.5918515 70.3797766,19.2101791 C70.4701042,19.7765942 70.5539733,20.302551 70.6292354,20.7745631 C70.6711666,21.0375408 70.6711666,21.0375408 70.6991195,21.2128584 C70.7195462,21.3409745 70.7195462,21.3409745 70.7238461,21.3679443 C70.7319026,21.4104235 70.7365434,21.4346027 70.7430703,21.4724092 C70.7546685,21.5395902 70.7664369,21.6173494 70.7775124,21.7040722 C70.842661,22.2141945 70.8520328,22.7520936 70.7724796,23.2386925 C70.6315252,24.1008598 70.2623023,24.5898272 69.5619634,24.7088848 C67.7125995,25.0232765 67.0634728,24.3577517 66.7819148,22.1336502 C66.6689479,21.2412946 66.3651286,19.2116538 65.9255096,16.3782797 C65.9125686,16.2948739 65.8995323,16.2109174 65.886403,16.1264255 C65.6808254,14.8034484 65.460585,13.4010134 65.2403474,12.0085316 C65.1632662,11.5211759 65.09169,11.0698674 65.0274527,10.6657885 C65.0049676,10.5243477 64.9850052,10.3989089 64.9677947,10.29087 C64.9503504,10.1814042 64.9503504,10.1814042 64.9466664,10.1583196 C64.8850023,9.77191687 64.519666,9.50833035 64.130665,9.56958265 C63.741664,9.63083494 63.4763051,9.99373105 63.5379692,10.3801338 C63.5416235,10.4030321 63.5416235,10.4030321 63.5590355,10.5122954 C63.5762228,10.6201892 63.5961618,10.7454806 63.6186231,10.8867713 C63.6828041,11.2904964 63.7543226,11.7414406 63.8313435,12.2284153 C64.0513972,13.6197348 64.2714482,15.0209634 64.4768092,16.3425462 C64.4899221,16.4269335 64.5029421,16.5107846 64.5158667,16.5940842 C64.9530835,19.4119765 65.2561622,21.4366697 65.366773,22.3104136 C65.7391369,25.2518151 67.0311624,26.5764793 69.8025642,26.1053413 C71.1947941,25.8686623 71.9512653,24.8668562 72.1803227,23.465794 C72.2849901,22.8255807 72.2733837,22.1594246 72.1924589,21.5257728 C72.1686689,21.3394942 72.1442392,21.1979882 72.1263982,21.1128245 C72.1282757,21.1193624 72.1282757,21.1193624 72.1078481,20.9912407 C72.0798942,20.8159171 72.0798942,20.8159171 72.037962,20.5529329 C71.9626983,20.0809108 71.8788275,19.5549438 71.7884982,18.9885179 C71.5304143,17.3701568 71.2722784,15.7517951 71.0312783,14.2413202 C70.4082088,10.3362196 70.0090894,7.83793103 69.9382377,7.4012924 C69.9310646,7.35708705 69.889558,7.08042041 69.8747391,6.98672818 C69.8403979,6.76960781 69.8049695,6.57012607 69.7626372,6.36414807 C69.6473541,5.80321038 69.4965344,5.2747536 69.2925338,4.77076097 C68.3692583,2.48976746 66.5802253,1.26094194 63.8077501,1.76792169 C61.6434633,2.16368703 60.3841058,3.44805955 59.9231238,5.27646296 C59.6798667,6.24129932 59.6802726,7.24809235 59.8239597,8.19363948 C59.8603711,8.43324867 59.8977508,8.61366254 59.9249646,8.72114284 L62.0184269,21.309909 C62.08269,21.6958936 62.4497919,21.9570484 62.838372,21.8932146 C63.2269521,21.8293807 63.489863,21.4647307 63.4255999,21.078746 L61.3201558,8.43277999 Z" id="paper-clip" fill="#C8CFD4" fill-rule="nonzero"></path>
                            <path d="M80.1937921,66.0476804 L79.7739521,102.105462 C79.7739521,105.755967 76.6519552,107.484474 72.803598,105.967303 L15.8805338,83.526034 C12.0309135,82.0083651 8.91017964,77.8180272 8.91017964,74.1682273 L8.91017964,37.8052058 C8.91017964,34.1547008 12.0321765,32.4261934 15.8805338,33.9433644 L72.803598,56.3846333 C74.0501293,56.8760641 76.9458848,57.1357355 77.9583616,58.0785353 C80.0726825,60.047352 80.1937921,63.5797087 80.1937921,66.0476804 Z" id="Rectangle-3" fill="#00CBD2"></path>
                            <path d="M22.2223044,17.6479086 L23.164049,17.3338045 L24.8543873,17.3879558 L26.3757351,17.6174431 C26.3757351,17.6174431 65.7561512,25.6590772 81.9365261,29.3139183 C82.6630416,29.4780245 83.0091136,29.4855523 83.923019,29.7491147 C84.2822818,29.852723 84.9204927,30.3185068 84.9204927,30.3185068 L86.2817661,31.5757428 L68.4030471,64.01544 L19.134762,63.7354555 C19.134762,63.7354555 20.0965357,38.4391529 20.6473779,23.2406226 C20.6542793,23.0502023 21.3861863,20.2675012 21.3861863,20.2675012 L21.79749,18.7852078 L22.2223044,17.6479086 Z" id="Rectangle-5" fill="url(#linearGradient-1)" transform="translate(52.708264, 40.674622) rotate(47.000000) translate(-52.708264, -40.674622) "></path>
                            <path d="M15.9739818,25.4375373 L16.01956,21.9226621 C16.01956,21.9226621 20.8343132,22.7713397 21.4926759,22.8583223 C41.2894438,25.4738617 80.3087126,33.6228876 80.3087126,33.6228876 L64.6784945,63.8156387 L16.0080204,65.9049013 L15.9739818,25.4375373 Z" id="Rectangle" fill="#48BEC5" transform="translate(48.141347, 43.913782) rotate(49.000000) translate(-48.141347, -43.913782) "></path>
                            <path d="M72.1167665,89.0715109 C72.1167665,89.0715109 53.8460163,72.6146939 43.8547904,69.0811856 C35.0046989,65.9512521 15.5928144,69.0811856 15.5928144,69.0811856 L15.5928144,20.5451031 L72.1167665,40.5354285 L72.1167665,89.0715109 Z" id="Rectangle-7" fill="#FFFFFF"></path>
                            <path d="M70.8637725,40.4007732 L72.1167665,40.4007732 L72.1167665,44.1237113 C72.1167665,44.1237113 71.9704744,44.1757293 71.903692,44.1237113 C71.5528097,43.8504031 70.8637725,43.1477328 70.8637725,43.1477328 L70.8637725,40.4007732 Z" id="Rectangle-9" fill="#D8D8D8"></path>
                            <polygon id="Rectangle-8" fill="#E64F65" points="67.3832335 51.0137323 20.6047904 34.3337629 20.6047904 30.4729381 67.3832335 47.1529075"></polygon>
                            <path d="M15.7320359,24.1643732 C12.7025751,22.8820041 15.7320359,20.4072165 15.7320359,20.4072165 L72.120979,40.446452 C72.120979,40.446452 71.1449347,41.9967872 71.1449347,42.714144 C71.1449347,43.2491728 72.120979,44.2903145 72.120979,44.2903145 C72.120979,44.2903145 18.7614968,25.4467422 15.7320359,24.1643732 Z" id="Rectangle-8" fill="#EBEAEA"></path>
                            <polygon id="Rectangle-8" fill="#606060" points="20.6047904 42.3457639 20.6047904 41.503866 67.3832335 58.1315537 67.3832335 58.9734516"></polygon>
                            <polygon id="Rectangle-8" fill="#606060" points="20.6047904 46.758135 20.6047904 45.9162371 67.3832335 62.5439248 67.3832335 63.3858227"></polygon>
                            <polygon id="Rectangle-8" fill="#606060" points="20.6047904 51.4462793 20.6047904 50.6043814 67.3832335 67.2320692 67.3832335 68.0739671"></polygon>
                            <polygon id="Rectangle-8" fill="#606060" points="20.6047904 55.8586505 20.6047904 55.0167526 67.3832335 71.6444403 67.3832335 72.4863382"></polygon>
                            <path d="M68.6211185,60.059649 L83.0268605,90.9710427 C83.0268605,90.9710427 81.6525469,91.9313732 80.9704857,92.0626812 C69.9642249,94.1815674 50.1952902,97.8041942 43.2752551,99.028449 C41.7389667,99.3002407 40.8391609,99.0928687 40.8391609,99.0928687 L68.6211185,60.059649 Z" id="Triangle" fill="#5AD9E0" transform="translate(61.933011, 79.614099) rotate(-79.000000) translate(-61.933011, -79.614099) "></path>
                            <path d="M30.8401395,38.7141723 L46.3723936,70.1285866 C46.3723936,70.1285866 45.6198873,70.9970593 44.3429105,71.3158211 C37.9237895,72.9181765 18.6068928,77.3605621 7.33684444,79.777423 C6.9962651,79.8504602 5.77964265,79.880577 4.91639538,79.6076853 C4.25481675,79.3985456 3.85207755,78.9728053 3.85207755,78.9728053 L30.8401395,38.7141723 Z" id="Triangle-2" fill="#5AD9E0" transform="translate(25.112236, 59.271018) rotate(103.000000) translate(-25.112236, -59.271018) "></path>
                            <path d="M76.2402534,59.6534587 L80.6865059,58.5377084 L82.2092417,57.9912789 C82.2092417,57.9912789 82.1732904,57.8118587 82.303325,58.2757037 C82.314412,58.3152522 82.303325,59.2841004 82.303325,59.2841004 L82.303325,60.781328 C82.303325,60.781328 82.2969819,62.3380268 82.303325,62.9915532 C82.3777528,70.6598258 82.5601808,89.4874847 82.303325,100.404335 C82.2958669,100.721315 81.7938132,102.734411 80.6865059,104.041094 C79.5396247,105.394476 77.7862381,106.037218 77.7862381,106.037218 L75.5660349,106.556178 C75.5660349,106.556178 76.4595598,105.652015 77.0194318,104.360495 C77.5684263,103.094067 77.7839583,101.44129 77.7862381,101.292788 C77.9627999,89.7915229 77.9067265,70.1035804 77.7862381,63.5307114 C77.7773739,63.0471562 77.5107495,61.9964021 77.2235056,61.4253487 C77.1185691,61.2167303 77.0070258,61.0130989 76.9283396,60.8931252 C76.722217,60.5788481 76.6556068,60.4503127 76.6556068,60.4503127 L76.2402534,59.6534587 Z" id="Rectangle-4" fill="url(#linearGradient-2)"></path>
                        </g>
                        <g id="small-envelope" transform="translate(72.000000, 27.000000)">
                            <path d="M31.883592,13.2281931 L31.7181055,27.775543 C31.7181055,29.2483228 30.4875216,29.9456813 28.9706315,29.3335855 L6.53351676,20.2797564 C5.0161288,19.6674597 3.78604282,17.9768867 3.78604282,16.5043913 L3.78604282,1.83389363 C3.78604282,0.361113775 5.01662666,-0.336244748 6.53351676,0.275851058 L28.9706315,9.32968022 C29.4619713,9.52794575 30.6033786,9.63270899 31.0024621,10.0130773 C31.8358547,10.8073876 31.883592,12.232501 31.883592,13.2281931 Z" id="Rectangle-3" fill="#609A06"></path>
                            <path d="M17.5840386,14.4444444 L31.3453961,29.1927083 C31.3453961,29.1927083 31.0411547,29.4124276 30.5922906,29.5439288 C30.2403389,29.6470381 29.7994726,29.6959106 29.3466383,29.5421007 C24.8376436,28.0105735 12.2621196,22.7734608 5.3440217,19.9141439 C4.80960423,19.693264 3.97236717,17.9081217 3.97236717,17.9081217 L17.5840386,14.4444444 Z" id="Triangle-3" fill="#79C600"></path>
                            <path d="M27.3220419,10.8123488 L33.0002901,23.2834117 C33.0002901,23.2834117 32.4585829,23.6708527 32.1897379,23.7238283 C27.8514483,24.5786835 20.0592139,26.040216 17.331574,26.5341361 C16.7260219,26.6437892 16.3713494,26.5601259 16.3713494,26.5601259 L27.3220419,10.8123488 Z" id="Triangle" fill="#8CD71B" transform="translate(24.685820, 18.701504) rotate(-79.000000) translate(-24.685820, -18.701504) "></path>
                            <path d="M12.2956369,2.30904383 L18.6374235,14.9859344 C18.6374235,14.9859344 18.5713835,15.070074 18.4321247,15.1489381 C18.234824,15.2606719 17.9130373,15.3866419 17.617965,15.4620326 C15.0877682,16.1084957 7.47371168,17.9007562 3.03144611,18.8758279 C2.89720145,18.9052944 2.41765071,18.9174449 2.07738832,18.807348 C1.81661677,18.7229715 1.65787082,18.5512085 1.65787082,18.5512085 L12.2956369,2.30904383 Z" id="Triangle-2" fill="#8CD71B" transform="translate(10.147647, 10.602611) rotate(103.000000) translate(-10.147647, -10.602611) "></path>
                            <path d="M18.6611685,5.20805133 C22.8375427,7.60706218 29.8575913,16.7317271 29.8575913,16.7317271 L1.30415693,17.2229875 C1.30415693,17.2229875 13.3247602,7.16757442 18.6611685,5.20805133 Z" id="Triangle-4" fill="#92DF1C" transform="translate(15.580874, 11.215519) scale(1, -1) rotate(-21.000000) translate(-15.580874, -11.215519) "></path>
                        </g>
                    </g>
                </g>
            </g>
        </g>
    </g>
</svg>