<?xml version="1.0" encoding="UTF-8"?>
<svg width="50px" height="44px" viewBox="0 0 50 44" version="1.1" xmlns="http://www.w3.org/2000/svg" xmlns:xlink="http://www.w3.org/1999/xlink">
    <!-- Generator: Sketch 47 (45396) - http://www.bohemiancoding.com/sketch -->
    <title>rfid</title>
    <desc>Created with Sketch.</desc>
    <defs></defs>
    <g id="Page-1" stroke="none" stroke-width="1" fill="none" fill-rule="evenodd">
        <g id="Login" transform="translate(-929.000000, -247.000000)" fill-rule="nonzero" fill="#FFFFFF">
            <g id="rfid" transform="translate(929.000000, 247.000000)">
                <path d="M11.84375,0.84375 C11.683594,0.871094 11.535156,0.933594 11.40625,1.03125 C4.542969,5.488281 0,13.214844 0,22 C0,30.785156 4.546875,38.511719 11.40625,42.96875 C11.699219,43.21875 12.113281,43.28125 12.464844,43.121094 C12.820313,42.960938 13.050781,42.613281 13.054688,42.226563 C13.0625,41.839844 12.847656,41.484375 12.5,41.3125 C6.1875,37.210938 2,30.097656 2,22 C2,13.902344 6.183594,6.789063 12.5,2.6875 C12.902344,2.441406 13.078125,1.945313 12.917969,1.5 C12.761719,1.054688 12.3125,0.78125 11.84375,0.84375 Z M37.84375,0.84375 C37.429688,0.914063 37.105469,1.234375 37.03125,1.644531 C36.953125,2.058594 37.140625,2.472656 37.5,2.6875 C43.8125,6.789063 48,13.902344 48,22 C48,30.097656 43.816406,37.210938 37.5,41.3125 C37.152344,41.484375 36.9375,41.839844 36.945313,42.226563 C36.949219,42.613281 37.179688,42.960938 37.535156,43.121094 C37.886719,43.28125 38.300781,43.21875 38.59375,42.96875 C45.457031,38.511719 50,30.785156 50,22 C50,13.214844 45.453125,5.488281 38.59375,1.03125 C38.402344,0.894531 38.171875,0.828125 37.9375,0.84375 C37.90625,0.84375 37.875,0.84375 37.84375,0.84375 Z M16.59375,6.15625 C16.460938,6.171875 16.335938,6.214844 16.21875,6.28125 C10.710938,9.359375 7,15.25 7,22 C7,28.75 10.710938,34.640625 16.21875,37.71875 C16.703125,37.996094 17.316406,37.828125 17.59375,37.34375 C17.871094,36.859375 17.703125,36.246094 17.21875,35.96875 C12.324219,33.234375 9,28.011719 9,22 C9,15.984375 12.324219,10.765625 17.21875,8.03125 C17.65625,7.804688 17.863281,7.292969 17.710938,6.824219 C17.554688,6.359375 17.078125,6.074219 16.59375,6.15625 Z M33.09375,6.15625 C32.667969,6.222656 32.328125,6.554688 32.257813,6.980469 C32.1875,7.40625 32.398438,7.832031 32.78125,8.03125 C37.675781,10.765625 41,15.988281 41,22 C41,28.015625 37.675781,33.234375 32.78125,35.96875 C32.296875,36.246094 32.128906,36.859375 32.40625,37.34375 C32.683594,37.828125 33.296875,37.996094 33.78125,37.71875 C39.289063,34.640625 43,28.75 43,22 C43,15.25 39.289063,9.359375 33.78125,6.28125 C33.574219,6.160156 33.332031,6.113281 33.09375,6.15625 Z M20.59375,11.9375 C20.496094,11.953125 20.402344,11.984375 20.3125,12.03125 C16.574219,13.789063 14,17.605469 14,22 C14,26.394531 16.574219,30.210938 20.3125,31.96875 C20.8125,32.210938 21.414063,32 21.65625,31.5 C21.898438,31 21.6875,30.398438 21.1875,30.15625 C18.132813,28.71875 16,25.609375 16,22 C16,18.386719 18.132813,15.28125 21.1875,13.84375 C21.628906,13.640625 21.863281,13.152344 21.738281,12.679688 C21.617188,12.210938 21.171875,11.894531 20.6875,11.9375 C20.65625,11.9375 20.625,11.9375 20.59375,11.9375 Z M29.09375,11.9375 C28.648438,11.992188 28.292969,12.339844 28.230469,12.785156 C28.164063,13.226563 28.402344,13.660156 28.8125,13.84375 C31.867188,15.28125 34,18.390625 34,22 C34,25.609375 31.867188,28.71875 28.8125,30.15625 C28.3125,30.398438 28.101563,31 28.34375,31.5 C28.585938,32 29.1875,32.210938 29.6875,31.96875 C33.425781,30.210938 36,26.394531 36,22 C36,17.605469 33.425781,13.789063 29.6875,12.03125 C29.503906,11.941406 29.296875,11.90625 29.09375,11.9375 Z M25,18 C22.789063,18 21,19.789063 21,22 C21,24.210938 22.789063,26 25,26 C27.210938,26 29,24.210938 29,22 C29,19.789063 27.210938,18 25,18 Z" id="Shape"></path>
            </g>
        </g>
    </g>
</svg>